<mxfile host="app.diagrams.net" modified="2024-06-04T19:09:24.020Z" agent="Mozilla/5.0 (Windows NT 10.0; Win64; x64) AppleWebKit/537.36 (KHTML, like Gecko) Chrome/125.0.0.0 Safari/537.36" etag="nByvsMj5MPcHjfbbeWlN" version="24.4.13" type="device">
  <diagram name="Страница — 1" id="Zww3IG1i-FCGzlQZVOAg">
    <mxGraphModel dx="2397" dy="491" grid="0" gridSize="10" guides="1" tooltips="1" connect="1" arrows="1" fold="1" page="0" pageScale="1" pageWidth="827" pageHeight="1169" math="0" shadow="0">
      <root>
        <mxCell id="0" />
        <mxCell id="1" parent="0" />
        <mxCell id="0MsGkE-gdlyJI1za6oVF-7" style="edgeStyle=orthogonalEdgeStyle;rounded=0;orthogonalLoop=1;jettySize=auto;html=1;entryX=0;entryY=0.25;entryDx=0;entryDy=0;" edge="1" parent="1" source="0MsGkE-gdlyJI1za6oVF-3" target="0MsGkE-gdlyJI1za6oVF-6">
          <mxGeometry relative="1" as="geometry">
            <Array as="points">
              <mxPoint x="-643" y="125" />
              <mxPoint x="-643" y="125" />
            </Array>
          </mxGeometry>
        </mxCell>
        <mxCell id="0MsGkE-gdlyJI1za6oVF-3" value="&lt;span style=&quot;font-size: 18px;&quot;&gt;Front-сервис&lt;/span&gt;" style="rounded=1;whiteSpace=wrap;html=1;" vertex="1" parent="1">
          <mxGeometry x="-883" y="87" width="176" height="154" as="geometry" />
        </mxCell>
        <mxCell id="0MsGkE-gdlyJI1za6oVF-8" style="edgeStyle=orthogonalEdgeStyle;rounded=0;orthogonalLoop=1;jettySize=auto;html=1;exitX=0;exitY=0.75;exitDx=0;exitDy=0;entryX=1;entryY=0.75;entryDx=0;entryDy=0;" edge="1" parent="1" source="0MsGkE-gdlyJI1za6oVF-6" target="0MsGkE-gdlyJI1za6oVF-3">
          <mxGeometry relative="1" as="geometry">
            <mxPoint x="-705.5127375676082" y="202.8461538461538" as="targetPoint" />
          </mxGeometry>
        </mxCell>
        <mxCell id="0MsGkE-gdlyJI1za6oVF-6" value="&lt;font style=&quot;font-size: 18px;&quot;&gt;Back-сервис&lt;/font&gt;" style="rounded=1;whiteSpace=wrap;html=1;" vertex="1" parent="1">
          <mxGeometry x="-443" y="87" width="176" height="154" as="geometry" />
        </mxCell>
      </root>
    </mxGraphModel>
  </diagram>
</mxfile>
